G75*
%MOIN*%
%OFA0B0*%
%FSLAX25Y25*%
%IPPOS*%
%LPD*%
%AMOC8*
5,1,8,0,0,1.08239X$1,22.5*
%
%ADD10C,0.00000*%
%ADD11C,0.07800*%
%ADD12OC8,0.05600*%
%ADD13C,0.06700*%
%ADD14OC8,0.06700*%
%ADD15C,0.05550*%
%ADD16C,0.11620*%
%ADD17C,0.05600*%
%ADD18C,0.05943*%
%ADD19C,0.06337*%
%ADD20C,0.07487*%
D10*
X0001800Y0001800D02*
X0001800Y0198650D01*
X0198650Y0198650D01*
X0198650Y0001800D01*
X0001800Y0001800D01*
D11*
X0006800Y0066800D03*
X0006800Y0076800D03*
X0006800Y0086800D03*
X0006800Y0096800D03*
X0006800Y0106800D03*
X0006800Y0116800D03*
X0006800Y0126800D03*
X0006800Y0136800D03*
X0006800Y0151800D03*
X0006800Y0161800D03*
X0006800Y0171800D03*
X0006800Y0181800D03*
X0006800Y0191800D03*
X0193800Y0136800D03*
X0193800Y0126800D03*
X0193800Y0116800D03*
X0193800Y0106800D03*
X0193800Y0096800D03*
X0193800Y0086800D03*
X0193800Y0076800D03*
X0193800Y0066800D03*
D12*
X0136800Y0131800D03*
X0136800Y0141800D03*
X0136800Y0154300D03*
X0131800Y0161800D03*
X0141800Y0161800D03*
X0038020Y0163611D03*
X0025402Y0163611D03*
X0025402Y0193611D03*
X0038020Y0193611D03*
X0034300Y0041800D03*
X0034300Y0031800D03*
X0038611Y0020461D03*
X0038611Y0010816D03*
X0046800Y0011800D03*
X0056800Y0011800D03*
X0066800Y0011800D03*
X0076800Y0011800D03*
X0069300Y0031800D03*
X0069300Y0041800D03*
X0051800Y0041800D03*
X0051800Y0031800D03*
X0008611Y0020461D03*
X0008611Y0010816D03*
D13*
X0131800Y0066800D03*
D14*
X0141800Y0066800D03*
D15*
X0059300Y0066800D03*
X0059300Y0056957D03*
X0059300Y0076643D03*
X0164221Y0170501D03*
X0168946Y0173650D03*
X0164221Y0176800D03*
X0168946Y0179950D03*
X0164221Y0183099D03*
D16*
X0184300Y0191170D03*
X0184300Y0162430D03*
D17*
X0119400Y0146800D02*
X0114200Y0146800D01*
X0114200Y0136800D02*
X0119400Y0136800D01*
X0119400Y0126800D02*
X0114200Y0126800D01*
X0114200Y0116800D02*
X0119400Y0116800D01*
X0119400Y0106800D02*
X0114200Y0106800D01*
X0114200Y0096800D02*
X0119400Y0096800D01*
X0119400Y0086800D02*
X0114200Y0086800D01*
X0114200Y0076800D02*
X0119400Y0076800D01*
X0119400Y0066800D02*
X0114200Y0066800D01*
X0114200Y0056800D02*
X0119400Y0056800D01*
X0119400Y0046800D02*
X0114200Y0046800D01*
X0114200Y0036800D02*
X0119400Y0036800D01*
X0119400Y0026800D02*
X0114200Y0026800D01*
X0114200Y0016800D02*
X0119400Y0016800D01*
X0089400Y0016800D02*
X0084200Y0016800D01*
X0084200Y0026800D02*
X0089400Y0026800D01*
X0089400Y0036800D02*
X0084200Y0036800D01*
X0084200Y0046800D02*
X0089400Y0046800D01*
X0089400Y0056800D02*
X0084200Y0056800D01*
X0084200Y0066800D02*
X0089400Y0066800D01*
X0089400Y0076800D02*
X0084200Y0076800D01*
X0084200Y0086800D02*
X0089400Y0086800D01*
X0089400Y0096800D02*
X0084200Y0096800D01*
X0084200Y0106800D02*
X0089400Y0106800D01*
X0089400Y0116800D02*
X0084200Y0116800D01*
X0084200Y0126800D02*
X0089400Y0126800D01*
X0089400Y0136800D02*
X0084200Y0136800D01*
X0084200Y0146800D02*
X0089400Y0146800D01*
D18*
X0126426Y0189300D03*
X0134300Y0189300D03*
X0142174Y0189300D03*
D19*
X0150048Y0189300D03*
X0118552Y0189300D03*
D20*
X0106485Y0184300D03*
X0086800Y0184300D03*
X0071643Y0184300D03*
X0051957Y0184300D03*
M02*
