%
M48
M72
T01C0.02362
T02C0.03150
T03C0.03200
T04C0.03543
T05C0.03937
T06C0.04000
T07C0.04724
T08C0.07480
%
T01
X101800Y26800
X106800Y81800
X101800Y96800
X61800Y141800
X71800Y151800
X65471Y178129
X41800Y171800
X101800Y146800
X116800Y161800
X166800Y141800
X156800Y91800
X156800Y81800
T02
X59300Y56957
X59300Y66800
X59300Y76643
X164221Y170501
X168946Y173650
X164221Y176800
X168946Y179950
X164221Y183099
T03
X25402Y193611
X38020Y193611
X38020Y163611
X25402Y163611
X86800Y146800
X86800Y136800
X86800Y126800
X86800Y116800
X86800Y106800
X86800Y96800
X86800Y86800
X86800Y76800
X86800Y66800
X86800Y56800
X86800Y46800
X86800Y36800
X86800Y26800
X86800Y16800
X76800Y11800
X66800Y11800
X56800Y11800
X46800Y11800
X38611Y10816
X38611Y20461
X34300Y31800
X34300Y41800
X51800Y41800
X51800Y31800
X69300Y31800
X69300Y41800
X116800Y36800
X116800Y46800
X116800Y56800
X116800Y66800
X116800Y76800
X116800Y86800
X116800Y96800
X116800Y106800
X116800Y116800
X116800Y126800
X116800Y136800
X116800Y146800
X131800Y161800
X136800Y154300
X141800Y161800
X136800Y141800
X136800Y131800
X131800Y66800
X141800Y66800
X116800Y26800
X116800Y16800
X8611Y20461
X8611Y10816
T04
X126426Y189300
X134300Y189300
X142174Y189300
T05
X118552Y189300
X150048Y189300
T06
X6800Y191800
X6800Y181800
X6800Y171800
X6800Y161800
X6800Y151800
X6800Y136800
X6800Y126800
X6800Y116800
X6800Y106800
X6800Y96800
X6800Y86800
X6800Y76800
X6800Y66800
X193800Y66800
X193800Y76800
X193800Y86800
X193800Y96800
X193800Y106800
X193800Y116800
X193800Y126800
X193800Y136800
T07
X51957Y184300
X71643Y184300
X86800Y184300
X106485Y184300
T08
X184300Y191170
X184300Y162430
M30
